<svg xmlns="http://www.w3.org/2000/svg" viewBox="0 0 57.476 57.7"><path d="m41.368 46.1 2.6 7.9c.7 2.2 2.8 3.6 5 3.6 1.7 0 3.3-.8 4.3-2.2s1.2-3.2.7-4.8l-4.7-13.4zm-26.8-7.2 9-26.6c.5-1.4 1.8-2.3 3.3-2.3s2.8.9 3.3 2.3l6.2 18.5 7.8-8.8-4.6-13.1c-1.9-5.4-7-8.9-12.6-8.9-5.7 0-10.7 3.6-12.6 8.9l-14 39.9c-.7 2.1-.4 4.3.9 6.1s3.3 2.8 5.5 2.8c1.9 0 3.7-.8 5-2.2l13.8-15.4 2.8 8.3c.2.7.7 1.3 1.2 1.8s1.2.8 1.9 1c.7.1 1.5.1 2.1-.1q1.05-.3 1.8-1.2l21-24.3c.5-.6.9-1.4 1-2.4.2-.9.1-1.9-.1-2.6l-1.7-4.8c-.1-.4-.3-.7-.5-.8-.1-.1-.2-.2-.4-.2h-.4c-.2.1-.5.2-.8.6l-19.8 22.5-2.7-8.1c-.8-3.2-4.9-3.8-7-1.4l-9.9 10.7"/></svg>