<svg class="g-header__svg" xmlns="http://www.w3.org/2000/svg" fill="none" viewBox="0 0 300 75"><g clip-path="url(#a)"><path fill="#141414" d="M45.833 0h-5.208v75h5.208V0ZM27.625 36.486c-.616-.432-1.537-.865-2.794-1.313-1.33-.526-2.24-.865-2.773-1.027l-2.934-.959c-3.011-.89-5.128-1.75-6.266-2.527-.952-.725-1.413-1.626-1.413-2.757 0-1.048.42-1.871 1.3-2.523.905-.708 2.157-1.068 3.72-1.068 3.523 0 6.017 1.647 7.631 5.034l.264.558 8.067-4.565-.243-.49c-1.501-3.065-3.643-5.472-6.36-7.15-2.716-1.679-5.867-2.528-9.365-2.528-4.015 0-7.471 1.188-10.276 3.523-2.846 2.293-4.294 5.472-4.294 9.454 0 3.981 1.433 6.999 4.268 9.063 2.189 1.495 5.21 2.824 8.993 3.955 3.379.933 5.743 1.814 7.037 2.622 1.159.688 1.723 1.636 1.723 2.897 0 1.163-.476 2.059-1.454 2.742-1.03.724-2.639 1.089-4.78 1.089-4.647 0-7.68-1.965-9.258-6.01l-.243-.62L0 48.567l.176.465c1.257 3.325 3.4 5.967 6.375 7.854 2.96 1.876 6.623 2.83 10.891 2.83 4.652 0 8.517-1.184 11.487-3.519 3.011-2.37 4.538-5.612 4.538-9.636 0-2.366-.564-4.456-1.65-6.175-.736-1.36-2.159-2.674-4.192-3.893v-.006ZM78.802 40.306l-17.38-24.234h-7.254v42.876h9.541V34.657l17.38 24.291h7.26V16.072h-9.547v24.234ZM116.561 43.934h12.661a9.797 9.797 0 0 1-3.881 4.774c-2.044 1.324-4.641 1.996-7.72 1.996-4.248 0-7.673-1.23-10.182-3.648-2.51-2.455-3.783-5.608-3.783-9.36s1.252-7 3.726-9.423c2.473-2.496 5.712-3.762 9.629-3.762 2.37 0 4.574.52 6.55 1.542 1.961 1.017 3.441 2.35 4.393 3.956l.285.485 8.196-4.628-.321-.516c-1.909-3.054-4.584-5.509-7.942-7.297-3.353-1.782-7.089-2.689-11.099-2.689-6.452 0-11.953 2.179-16.34 6.483-4.352 4.305-6.561 9.637-6.561 15.849s2.23 11.486 6.628 15.796c4.429 4.258 10.069 6.416 16.759 6.416 6.287 0 11.497-1.918 15.481-5.702 3.995-3.794 6.023-8.807 6.023-14.905v-3.8h-22.502V43.935ZM169.312 44.064c0 2.08-.6 3.653-1.826 4.82-1.18 1.12-3.033 1.689-5.506 1.689-2.473 0-4.351-.573-5.562-1.683-1.195-1.168-1.77-2.747-1.77-4.831V16.072h-9.484V44.72c0 4.566 1.604 8.266 4.766 10.992 3.135 2.7 7.192 4.07 12.055 4.07 4.864 0 8.983-1.37 12.113-4.07 3.162-2.726 4.766-6.421 4.766-10.992V16.072h-9.547v27.992h-.005ZM196.5 16.063h-9.547v42.875h25.788v-9.021H196.5V16.062ZM244.934 16.053h-11.212l-15.316 42.876h10.292l2.556-7.51h16.148l2.557 7.51h10.353l-15.243-42.496-.14-.38h.005Zm-.543 26.521h-10.064l5.035-14.691 5.034 14.692h-.005ZM290.376 42.897a14.68 14.68 0 0 0 5.614-4.873c1.562-2.314 2.349-4.847 2.349-7.536 0-3.961-1.449-7.385-4.31-10.189-2.857-2.798-6.37-4.216-10.437-4.216h-17.608v42.876h9.547V44.476h5.484l8.579 14.483h10.411l-9.624-16.062h-.005Zm-14.85-17.965h8.061c1.433 0 2.628.527 3.663 1.61 1.04 1.09 1.542 2.382 1.542 3.951s-.507 2.887-1.542 4.008c-1.029 1.084-2.23 1.61-3.663 1.61h-8.061V24.932Z"/></g><defs><clipPath id="a"><path fill="#141414" d="M0 0h300v75H0z"/></clipPath></defs></svg>
